<?xml version="1.0" encoding="UTF-8" standalone="yes"?>
<svg fill="none" stroke-linecap="square" stroke-miterlimit="10" version="1.1" viewBox="0.0 0.0 783.5564304461942 664.6141732283464" xmlns="http://www.w3.org/2000/svg">
 <clipPath id="a">
  <path d="m0 0h783.56v664.61h-783.56v-664.61z"/>
 </clipPath>
 <g clip-path="url(#a)">
  <path d="m0 0h783.56v664.61h-783.56z" fill="#000" fill-opacity="0"/>
  <path d="m249.3 234.39c-25.316-38.622 81.794-229.91 128.53-229.54 46.739 0.36465 173.32 193.47 151.9 231.73-21.422 38.257-255.11 36.434-280.43-2.1879z" fill="#f1c232"/>
  <path d="m223.62 395.81c-41.221 23.779-37.903 239.68 3.9811 259.08 41.885 19.401 247.99-99.496 247.33-142.68-0.66351-43.18-210.09-140.18-251.31-116.41z" fill="#f1c232"/>
  <path d="m255.57 460.25c-41.286 23.683-245.77-76.516-245.38-120.24 0.3898-43.723 206.82-162.14 247.71-142.1 40.896 20.04 38.947 238.65-2.3388 262.34z" fill="#f1c232"/>
  <path d="m523.21 201.71c41.286-23.683 245.77 76.516 245.38 120.24-0.38983 43.723-206.82 162.14-247.71 142.1-40.896-20.04-38.947-238.65 2.3388-262.34z" fill="#f1c232"/>
  <path d="m613.7 395.81c41.221 23.779 37.903 239.68-3.9811 259.08-41.884 19.401-247.99-99.496-247.33-142.68 0.66351-43.18 210.09-140.18 251.31-116.41z" fill="#f1c232"/>
  <path d="m250.14 334.43c0-71.693 62.123-129.81 138.76-129.81 76.633 0 138.76 58.118 138.76 129.81 0 71.693-62.123 129.81-138.76 129.81-76.633 0-138.76-58.118-138.76-129.81z" fill="#f1c232"/>
 </g>
</svg>
